<?xml version="1.0" standalone="no"?>
<!DOCTYPE svg PUBLIC "-//W3C//DTD SVG 20010904//EN"
 "http://www.w3.org/TR/2001/REC-SVG-20010904/DTD/svg10.dtd">
<svg version="1.0" xmlns="http://www.w3.org/2000/svg"
 width="700.000000pt" height="700.000000pt" viewBox="0 0 700.000000 700.000000"
 preserveAspectRatio="xMidYMid meet">
<metadata>
Created by potrace 1.11, written by Peter Selinger 2001-2013
</metadata>
<g transform="translate(0.000000,700.000000) scale(0.100000,-0.100000)"
fill="#000000" stroke="none">
<path d="M0 3500 l0 -3500 3500 0 3500 0 0 3500 0 3500 -3500 0 -3500 0 0
-3500z m6316 1 l-1 -2816 -2815 0 -2815 0 -1 2817 -1 2816 2817 0 2817 0 -1
-2817z"/>
<path d="M1690 4970 c0 -265 3 -340 13 -341 6 0 207 0 444 0 l433 0 2 -1052 3
-1052 353 -2 352 -1 0 36 c0 20 1 494 1 1053 l1 1016 237 -1 236 -1 0 -1045
c0 -652 4 -1048 10 -1052 5 -4 172 -6 372 -6 l363 0 0 1053 0 1053 398 0 c218
1 405 1 415 1 16 1 17 24 17 341 l0 340 -1825 0 -1825 0 0 -340z m3433 131 c4
-1 6 -61 5 -133 l-3 -133 -410 0 -410 0 -3 -1052 -2 -1053 -178 0 -177 0 0
1053 0 1052 -427 0 c-236 0 -429 -2 -429 -5 -1 -3 -2 -475 -3 -1050 l-1 -1045
-163 -3 c-149 -2 -162 -1 -162 15 -1 10 -2 484 -3 1053 l-2 1035 -425 0 -425
0 -5 116 c-6 143 -5 147 28 151 21 2 3162 1 3195 -1z"/>
<path d="M4171 2210 l1 -60 58 0 c57 0 59 1 62 28 2 15 1 42 -1 60 l-3 32 -59
0 -58 0 0 -60z"/>
<path d="M3790 2230 c-23 -6 -24 -9 -24 -94 l1 -87 -36 1 c-61 3 -61 3 -61
-44 0 -41 2 -43 28 -44 75 0 68 17 69 -175 1 -179 10 -225 48 -263 23 -23 93
-42 142 -38 41 3 116 34 128 54 9 15 -36 71 -49 61 -22 -18 -87 -30 -111 -21
-43 16 -49 44 -51 218 -2 181 -9 165 76 164 79 -1 86 2 86 47 l0 40 -80 3 -81
3 0 87 1 86 -31 4 c-17 2 -42 1 -55 -2z"/>
<path d="M1631 2048 c-140 -53 -213 -214 -167 -373 23 -77 98 -155 171 -175
110 -32 236 -8 295 55 l22 24 -30 32 -30 32 -33 -25 c-41 -31 -64 -38 -122
-40 -178 -3 -247 263 -96 368 34 23 50 28 100 27 47 -1 67 -7 103 -31 l44 -30
33 34 32 33 -24 21 c-76 65 -200 85 -298 48z"/>
<path d="M2673 2060 c-186 -42 -272 -299 -153 -462 52 -72 115 -106 205 -112
89 -7 217 33 255 79 12 14 9 20 -18 48 -29 29 -32 30 -49 14 -46 -41 -146 -63
-208 -46 -48 13 -113 74 -120 112 -4 18 -7 36 -8 42 -1 6 76 10 213 10 l215 0
-1 35 c-4 163 -103 278 -243 285 -31 1 -70 -1 -88 -5z m156 -107 c28 -21 76
-107 67 -121 -6 -10 -316 -10 -317 1 -7 46 50 121 106 136 45 13 115 5 144
-16z"/>
<path d="M3240 2053 c-60 -15 -110 -40 -110 -54 0 -8 11 -28 36 -67 1 -2 21 7
45 19 52 26 150 34 196 14 39 -17 65 -55 61 -90 l-3 -26 -116 -2 c-109 -2
-118 -4 -164 -32 -62 -39 -89 -89 -87 -163 2 -105 78 -167 202 -165 59 1 108
20 148 56 21 20 22 20 23 1 1 -10 1 -25 0 -31 -1 -9 15 -13 51 -13 l53 0 -1
213 c-1 173 -4 219 -17 243 -50 98 -171 134 -317 97z m227 -296 c3 -4 6 -26 5
-49 -4 -103 -127 -170 -227 -122 -27 12 -35 23 -40 53 -10 62 14 103 72 121
31 10 179 7 190 -3z"/>
<path d="M5215 2059 c-122 -30 -205 -143 -206 -283 -2 -205 172 -333 380 -279
53 13 131 58 138 79 2 6 -8 23 -21 37 l-25 27 -54 -30 c-90 -50 -181 -46 -251
11 -37 32 -74 114 -53 121 7 3 105 4 220 3 l207 -1 0 31 c0 68 -37 165 -82
216 -52 59 -165 90 -253 68z m154 -107 c35 -26 60 -62 67 -97 l6 -30 -161 0
-161 0 0 28 c0 33 74 113 111 120 44 8 114 -3 138 -21z"/>
<path d="M2270 2045 c-26 -8 -57 -26 -70 -40 -32 -34 -40 -32 -40 10 l0 35
-50 0 -50 0 0 -275 0 -275 53 0 53 0 0 163 c1 185 10 218 72 265 28 22 46 27
89 27 l54 0 10 39 c6 21 8 43 6 50 -7 17 -74 17 -127 1z"/>
<path d="M4197 2052 c-16 -3 -17 -27 -17 -278 l0 -275 53 3 52 3 1 272 1 271
-36 4 c-20 2 -44 2 -54 0z"/>
<path d="M4386 2018 c16 -38 15 -35 133 -308 l88 -205 55 -3 55 -3 114 267
c63 147 116 271 117 276 2 4 -23 8 -55 8 l-58 0 -24 -62 c-13 -35 -29 -76 -36
-93 -26 -59 -85 -215 -85 -223 0 -5 -6 -16 -13 -26 -12 -17 -23 5 -97 193
l-84 211 -63 0 -62 0 15 -32z"/>
</g>
</svg>
