<?xml version="1.0" standalone="no"?>
<!DOCTYPE svg PUBLIC "-//W3C//DTD SVG 20010904//EN"
 "http://www.w3.org/TR/2001/REC-SVG-20010904/DTD/svg10.dtd">
<svg version="1.0" xmlns="http://www.w3.org/2000/svg"
 width="700.000000pt" height="700.000000pt" viewBox="0 0 700.000000 700.000000"
 preserveAspectRatio="xMidYMid meet">
<metadata>
Created by potrace 1.11, written by Peter Selinger 2001-2013
</metadata>
<g transform="translate(0.000000,700.000000) scale(0.100000,-0.100000)"
fill="#000000" stroke="none">
<path d="M5628 6565 c-2 -1 -46 -5 -99 -9 -251 -16 -450 -78 -622 -193 -183
-123 -270 -288 -269 -508 1 -216 98 -374 282 -463 110 -53 214 -74 365 -75
319 -1 556 133 641 363 22 61 28 221 9 283 -50 165 -164 296 -335 382 l-55 28
40 15 c50 19 298 27 371 12 28 -6 64 -13 80 -16 158 -29 364 -143 500 -278
187 -187 242 -462 135 -674 -37 -74 -132 -177 -209 -229 -184 -122 -479 -236
-900 -348 -70 -19 -194 -55 -277 -80 -114 -35 -619 -168 -995 -260 -8 -2 -67
-15 -130 -29 -63 -14 -153 -34 -200 -46 -47 -11 -93 -22 -102 -25 -131 -31
-384 -115 -503 -165 -44 -18 -292 -143 -325 -162 -152 -92 -332 -243 -415
-348 -127 -161 -220 -393 -242 -602 -11 -113 -6 -309 12 -404 58 -309 227
-528 527 -679 207 -106 409 -149 693 -149 169 -1 284 8 390 29 44 9 93 19 109
21 51 10 226 74 294 109 296 151 429 403 377 711 -23 134 -108 261 -227 342
-200 134 -551 143 -788 20 -172 -88 -265 -233 -277 -426 -15 -244 96 -434 316
-544 l94 -46 -32 -16 c-165 -86 -506 -76 -731 21 -237 102 -373 229 -437 407
-32 90 -37 279 -9 325 4 6 9 20 11 31 7 35 59 114 110 166 100 102 241 178
505 274 73 26 253 83 300 95 328 82 467 119 665 175 270 77 578 164 674 190
l65 17 65 -35 c333 -175 523 -475 557 -877 25 -302 -29 -529 -180 -750 -174
-255 -493 -484 -881 -632 -179 -68 -477 -143 -665 -168 -25 -3 -63 -8 -85 -12
-114 -17 -298 -27 -505 -27 -173 0 -416 10 -455 18 -11 2 -56 7 -100 11 -44 3
-89 8 -100 11 -11 2 -36 6 -55 8 -19 2 -51 7 -70 10 -19 3 -46 8 -60 10 -230
38 -525 131 -727 228 -76 36 -262 143 -273 157 -3 3 -38 33 -78 65 -242 196
-409 494 -457 816 -26 169 -26 434 0 560 3 14 10 51 15 82 67 363 344 705 765
939 l80 45 59 -33 c256 -144 344 -179 460 -182 155 -4 246 60 246 174 0 84
-54 155 -150 198 -36 17 -67 21 -155 21 -130 1 -166 -3 -372 -43 l-92 -18 -24
26 c-146 158 -266 427 -294 656 -9 77 -9 261 1 345 35 316 162 552 387 717 99
73 263 146 378 168 291 56 640 9 796 -108 19 -15 19 -16 -10 -22 -167 -38
-325 -148 -416 -292 -63 -100 -81 -161 -84 -283 -3 -91 0 -116 23 -186 15 -44
42 -101 61 -125 135 -175 415 -253 700 -194 166 34 346 169 409 306 77 168 63
381 -36 544 -44 73 -155 186 -242 247 -157 110 -415 223 -560 244 -30 4 -57 8
-60 9 -14 4 -122 16 -175 21 -134 10 -495 4 -564 -10 -14 -3 -49 -8 -78 -11
-128 -14 -345 -69 -478 -122 -406 -160 -663 -388 -745 -659 -36 -120 -50 -331
-28 -428 5 -22 12 -51 14 -64 12 -62 69 -188 121 -270 62 -95 222 -248 350
-332 90 -59 312 -176 413 -217 23 -9 16 -13 -65 -37 -194 -59 -403 -144 -585
-239 -260 -136 -452 -295 -653 -539 -212 -259 -305 -476 -346 -813 -14 -114
-6 -436 14 -525 3 -14 8 -38 11 -55 34 -199 150 -469 282 -655 79 -112 274
-311 387 -395 145 -109 337 -226 450 -275 22 -10 67 -30 99 -45 167 -77 519
-187 706 -221 14 -3 57 -11 95 -19 81 -16 331 -52 423 -60 34 -3 88 -7 120
-10 157 -14 567 -20 732 -11 89 5 227 17 247 20 10 2 49 7 86 11 37 3 78 8 90
11 12 2 38 7 57 10 19 2 55 9 80 14 25 5 61 12 80 15 131 22 490 131 605 185
11 5 43 19 70 30 427 182 789 468 1007 795 158 236 264 546 278 815 35 677
-215 1212 -690 1468 -72 40 -73 41 -48 51 46 17 157 48 293 81 72 17 137 33
145 35 97 24 321 102 440 152 573 245 852 565 918 1053 9 69 9 327 -1 398 -29
222 -123 421 -271 580 -47 50 -180 160 -224 186 -122 71 -292 142 -387 161
-22 5 -42 9 -45 10 -3 1 -25 5 -50 9 -25 5 -54 10 -65 12 -11 2 -65 6 -120 9
-55 4 -121 8 -147 9 -26 2 -48 3 -50 1z"/>
</g>
</svg>
