<svg xmlns="http://www.w3.org/2000/svg" viewBox="0 0 40 40" fill="currentColor" height="40" width="40">
  <path d="M7.215 0A7.2 7.2 0 000 7.215v25.57A7.2 7.2 0 007.215 40h25.57A7.2 7.2 0 0040 32.785V7.215A7.2 7.2 0 0032.785 0H7.215zM20 5c8.285 0 15 6.716 15 15 0 8.284-6.715 15-15 15S5 28.284 5 20c0-8.284 6.715-15 15-15zm0 2.61c-1.05 0-2.065.146-3.04.392a57.846 57.846 0 014.36 6.797c2.648-1.121 4.728-2.657 6.235-4.6A12.326 12.326 0 0020 7.61zm-5.592 1.347a12.414 12.414 0 00-6.433 8.107c4.19-.028 7.818-.487 10.855-1.38a55.747 55.747 0 00-4.422-6.727zm15.045 3.05c-1.729 2.156-4.046 3.852-6.933 5.102.337.694.652 1.396.957 2.1 2.7-.465 5.66-.436 8.878.092a12.327 12.327 0 00-2.902-7.293zm-9.39 6.02c-3.477 1.093-7.627 1.647-12.438 1.653l-.016.32c0 3.009 1.08 5.77 2.87 7.918 2.715-4.073 6.196-6.778 10.421-8.1-.267-.6-.546-1.197-.837-1.79zm8.109 3.467a21.482 21.482 0 00-3.695.186 51.372 51.372 0 012.4 8.62 12.406 12.406 0 005.35-8.376 29.224 29.224 0 00-4.055-.43zm-6.28.735c-3.894 1.16-7.036 3.673-9.497 7.533 3.36 2.623 7.864 3.406 12.05 1.793a48.93 48.93 0 00-2.552-9.326z"/>
</svg>
