<?xml version="1.0" encoding="UTF-8" standalone="no"?>
<svg
   xmlns:dc="http://purl.org/dc/elements/1.1/"
   xmlns:cc="http://creativecommons.org/ns#"
   xmlns:rdf="http://www.w3.org/1999/02/22-rdf-syntax-ns#"
   xmlns:svg="http://www.w3.org/2000/svg"
   xmlns="http://www.w3.org/2000/svg"
   xmlns:sodipodi="http://sodipodi.sourceforge.net/DTD/sodipodi-0.dtd"
   xmlns:inkscape="http://www.inkscape.org/namespaces/inkscape"
   viewBox="0 0 236 236"
   fill="currentColor"
   height="236"
   width="236"
   version="1.1"
   id="svg4"
   sodipodi:docname="favicon.svg"
   inkscape:version="0.92.4 5da689c313, 2019-01-14">
  <metadata
     id="metadata10">
    <rdf:RDF>
      <cc:Work
         rdf:about="">
        <dc:format>image/svg+xml</dc:format>
        <dc:type
           rdf:resource="http://purl.org/dc/dcmitype/StillImage" />
        <dc:title />
      </cc:Work>
    </rdf:RDF>
  </metadata>
  <defs
     id="defs8" />
  <sodipodi:namedview
     pagecolor="#ffffff"
     bordercolor="#666666"
     borderopacity="1"
     objecttolerance="10"
     gridtolerance="10"
     guidetolerance="10"
     inkscape:pageopacity="0"
     inkscape:pageshadow="2"
     inkscape:window-width="1366"
     inkscape:window-height="705"
     id="namedview6"
     showgrid="false"
     inkscape:zoom="1"
     inkscape:cx="23"
     inkscape:cy="-180"
     inkscape:window-x="0"
     inkscape:window-y="30"
     inkscape:window-maximized="1"
     inkscape:current-layer="svg4" />
  <path
     d="M 0,0 V 236 H 236 V 0 Z M 23,23 H 213 V 213 H 23 Z m 34,34 v 23 h 30 v 71 h 24 V 80 h 16 v 71 h 25 V 80 h 28 V 57 Z m 7,7 h 109 v 9 h -28 v 71 H 133 V 73 h -29 v 71 c -4.658,-0.064 -7.556,0 -11,0 V 73 H 64 Z m 76.68,95.48 v 4.04 h 4.04 v -4.04 z M 127,160.76 v 6.08 h -3.36 v 3 H 127 v 9.52 c 0,2.266 0.453,3.933 1.36,5 0.933,1.066 2.387,1.6 4.36,1.6 1.12,0 2.08,-0.174 2.88,-0.52 0.826,-0.32 1.627,-0.853 2.4,-1.6 l -1.64,-2.2 c -0.454,0.427 -0.907,0.746 -1.36,0.96 -0.453,0.213 -1.027,0.32 -1.72,0.32 -0.854,0 -1.52,-0.28 -2,-0.84 -0.454,-0.56 -0.68,-1.587 -0.68,-3.08 v -9.16 h 5.44 v -3 h -5.44 v -6.08 z m -68.4,5.48 c -1.44,0 -2.76,0.266 -3.96,0.8 a 9.496,9.496 0 0 0 -3.08,2.12 9.487,9.487 0 0 0 -2,3.12 c -0.48,1.2 -0.72,2.48 -0.72,3.84 0,1.44 0.226,2.772 0.68,4 0.453,1.2 1.093,2.24 1.92,3.12 0.853,0.854 1.88,1.533 3.08,2.04 1.226,0.48 2.586,0.72 4.08,0.72 1.6,0 3,-0.28 4.2,-0.84 1.227,-0.587 2.254,-1.346 3.08,-2.28 l -2.2,-2.32 c -0.56,0.694 -1.28,1.254 -2.16,1.68 -0.854,0.4 -1.827,0.6 -2.92,0.6 -0.96,0 -1.827,-0.187 -2.6,-0.56 a 6.17,6.17 0 0 1 -1.92,-1.48 7.751,7.751 0 0 1 -1.2,-2.16 8.17,8.17 0 0 1 -0.4,-2.52 c 0,-0.88 0.134,-1.72 0.4,-2.52 a 7.065,7.065 0 0 1 1.2,-2.16 5.466,5.466 0 0 1 1.92,-1.48 c 0.773,-0.372 1.64,-0.56 2.6,-0.56 1.093,0 2.04,0.2 2.84,0.6 0.8,0.4 1.48,0.947 2.04,1.64 l 2.36,-2.28 a 9.372,9.372 0 0 0 -3.08,-2.28 c -1.2,-0.56 -2.587,-0.84 -4.16,-0.84 z m 33.76,0.04 c -1.36,0 -2.614,0.252 -3.76,0.76 a 9.122,9.122 0 0 0 -2.92,2.08 c -0.827,0.852 -1.467,1.88 -1.92,3.08 -0.454,1.173 -0.68,2.44 -0.68,3.8 0,1.493 0.226,2.853 0.68,4.08 0.48,1.227 1.146,2.28 2,3.16 0.853,0.88 1.88,1.56 3.08,2.04 1.2,0.48 2.52,0.72 3.96,0.72 1.174,0 2.213,-0.134 3.12,-0.4 0.933,-0.24 1.734,-0.533 2.4,-0.88 0.694,-0.346 1.253,-0.706 1.68,-1.08 0.427,-0.373 0.748,-0.68 0.96,-0.92 l -2.04,-2.16 c -0.453,0.507 -1.186,1.026 -2.2,1.56 -1.013,0.532 -2.307,0.8 -3.88,0.8 -0.8,0 -1.56,-0.146 -2.28,-0.44 a 6.484,6.484 0 0 1 -1.92,-1.2 6.052,6.052 0 0 1 -1.36,-1.8 5.838,5.838 0 0 1 -0.52,-2.28 h 14.68 c 0,-1.414 -0.173,-2.774 -0.52,-4.08 -0.347,-1.308 -0.894,-2.466 -1.64,-3.48 a 8.01,8.01 0 0 0 -2.8,-2.44 c -1.146,-0.614 -2.52,-0.92 -4.12,-0.92 z m 20.4,0 c -1.014,0 -1.907,0.08 -2.68,0.24 -0.773,0.133 -1.467,0.32 -2.08,0.56 a 8.969,8.969 0 0 0 -1.6,0.72 c -0.453,0.267 -0.84,0.533 -1.16,0.8 l 1.68,2.44 c 0.56,-0.4 1.253,-0.786 2.08,-1.16 0.827,-0.4 1.946,-0.6 3.36,-0.6 1.44,0 2.573,0.306 3.4,0.92 0.853,0.586 1.28,1.573 1.28,2.96 v 0.68 a 6.858,6.858 0 0 0 -0.68,-0.08 c -0.32,-0.027 -0.693,-0.054 -1.12,-0.08 -0.426,-0.027 -0.88,-0.054 -1.36,-0.08 -0.48,-0.027 -0.934,-0.04 -1.36,-0.04 -2.64,0 -4.667,0.6 -6.08,1.8 -1.387,1.2 -2.08,2.8 -2.08,4.8 0,1.067 0.187,1.974 0.56,2.72 0.4,0.72 0.906,1.32 1.52,1.8 0.64,0.453 1.333,0.774 2.08,0.96 0.773,0.214 1.547,0.32 2.32,0.32 1.2,0 2.36,-0.227 3.48,-0.68 1.147,-0.454 2.067,-1.147 2.76,-2.08 l 0.08,2.24 h 3.36 c -0.027,-0.454 -0.04,-1 -0.04,-1.64 v -10.84 c 0,-2.132 -0.693,-3.774 -2.08,-4.92 -1.36,-1.174 -3.24,-1.76 -5.64,-1.76 z m 65.32,0 c -1.36,0 -2.613,0.252 -3.76,0.76 a 9.122,9.122 0 0 0 -2.92,2.08 c -0.826,0.852 -1.466,1.88 -1.92,3.08 -0.453,1.173 -0.68,2.44 -0.68,3.8 0,1.493 0.227,2.853 0.68,4.08 0.48,1.227 1.147,2.28 2,3.16 0.854,0.88 1.88,1.56 3.08,2.04 1.2,0.48 2.52,0.72 3.96,0.72 1.173,0 2.214,-0.134 3.12,-0.4 0.934,-0.24 1.732,-0.533 2.4,-0.88 0.692,-0.346 1.254,-0.706 1.68,-1.08 0.427,-0.373 0.746,-0.68 0.96,-0.92 l -2.04,-2.16 c -0.453,0.507 -1.187,1.026 -2.2,1.56 -1.014,0.532 -2.306,0.8 -3.88,0.8 a 5.99,5.99 0 0 1 -2.28,-0.44 6.484,6.484 0 0 1 -1.92,-1.2 6.046,6.046 0 0 1 -1.36,-1.8 5.838,5.838 0 0 1 -0.52,-2.28 h 14.68 c 0,-1.414 -0.173,-2.774 -0.52,-4.08 -0.346,-1.308 -0.893,-2.466 -1.64,-3.48 a 8.016,8.016 0 0 0 -2.8,-2.44 c -1.147,-0.614 -2.52,-0.92 -4.12,-0.92 z m -99.039,0.28 c -0.853,0 -1.615,0.12 -2.281,0.36 -0.64,0.213 -1.212,0.48 -1.719,0.8 -0.48,0.32 -0.894,0.68 -1.24,1.08 a 8.45,8.45 0 0 0 -0.84,1.04 l -0.121,-3 H 69.4 c 0.027,0.613 0.04,1.214 0.04,1.8 v 16.8 h 3.601 v -9.8 c 0,-0.773 0.132,-1.507 0.398,-2.2 a 5.965,5.965 0 0 1 1.16,-1.8 5.098,5.098 0 0 1 1.68,-1.24 5.304,5.304 0 0 1 2.16,-0.44 c 0.747,0 1.36,0.094 1.84,0.28 l 0.801,-3.36 a 5.065,5.065 0 0 0 -0.96,-0.24 6.587,6.587 0 0 0 -1.079,-0.08 z m 61.879,0.28 v 18.6 h 3.6 v -18.6 z m 6.48,0 8,18.6 h 3.6 l 7.959,-18.6 h -3.879 l -5.76,14.52 -5.8,-14.52 z m -55.04,2.48 c 1.653,0 2.933,0.507 3.84,1.52 0.906,1.013 1.414,2.24 1.52,3.68 H 86.76 a 5.306,5.306 0 0 1 0.44,-1.92 c 0.266,-0.64 0.64,-1.2 1.12,-1.68 a 5.587,5.587 0 0 1 1.721,-1.16 c 0.693,-0.294 1.465,-0.44 2.318,-0.44 z m 85.72,0 c 1.653,0 2.933,0.507 3.84,1.52 0.907,1.013 1.413,2.24 1.52,3.68 h -10.96 a 5.306,5.306 0 0 1 0.44,-1.92 c 0.267,-0.64 0.64,-1.2 1.12,-1.68 a 5.587,5.587 0 0 1 1.72,-1.16 c 0.693,-0.294 1.467,-0.44 2.32,-0.44 z m -65.32,7 c 0.426,0 0.867,0.013 1.32,0.04 0.453,0.026 0.88,0.053 1.28,0.08 0.4,0.026 0.747,0.067 1.04,0.12 0.32,0.027 0.532,0.054 0.64,0.08 v 2.12 c 0,0.56 -0.147,1.107 -0.44,1.64 -0.294,0.534 -0.68,1 -1.16,1.4 -0.48,0.4 -1.04,0.72 -1.68,0.96 -0.614,0.24 -1.266,0.36 -1.96,0.36 -1.226,0 -2.187,-0.254 -2.88,-0.76 -0.693,-0.534 -1.04,-1.308 -1.04,-2.32 0,-0.4 0.067,-0.813 0.2,-1.24 0.133,-0.453 0.374,-0.854 0.72,-1.2 0.374,-0.374 0.866,-0.68 1.48,-0.92 0.64,-0.24 1.466,-0.36 2.48,-0.36 z"
     id="path2"
     inkscape:connector-curvature="0"
     style="fill:#524741;fill-opacity:1" />
</svg>
