<svg xmlns="http://www.w3.org/2000/svg" viewBox="0 0 40 40" fill="currentColor" height="40" width="40">
  <path d="M7.215 0A7.2 7.2 0 000 7.215v25.57A7.2 7.2 0 007.215 40h4.797c-.192-1.747-.364-4.964.078-6.87.398-1.724 2.568-10.935 2.568-10.935s-.656-1.322-.656-3.279c0-3.07 1.77-5.363 3.969-5.363 1.868 0 2.771 1.414 2.771 3.11 0 1.893-1.197 4.724-1.816 7.35-.517 2.198 1.094 3.995 3.246 3.995 3.896 0 6.89-4.14 6.89-10.115 0-5.288-3.77-8.985-9.156-8.985-6.236 0-9.896 4.714-9.896 9.584 0 1.898.725 3.935 1.63 5.04.18.218.208.41.155.632l-.611 2.506c-.097.405-.318.49-.735.295C7.711 25.68 6 21.65 6 18.41c0-6.966 5.024-13.367 14.484-13.367C28.09 5.043 34 10.503 34 17.799c0 7.613-4.764 13.738-11.377 13.738-2.221 0-4.31-1.205-5.023-2.58l-1.368 5.252c-.495 1.92-1.831 4.326-2.726 5.791h19.28A7.2 7.2 0 0040 32.785V7.215A7.2 7.2 0 0032.785 0z"/>
</svg>
