<svg xmlns="http://www.w3.org/2000/svg" viewBox="0 0 236 236" fill="currentColor" height="236" width="236">
    <path d="M0 0v236h236V0H0zm23 23h190v190H23V23zm34 34v23h30v71h24V80h16v71h25V80h28V57H57zm7 7h109v9h-28v71h-12V73h-29v71c-4.658-.064-7.556 0-11 0V73H64v-9zm76.68 95.48v4.04h4.04v-4.04h-4.04zM127 160.76v6.08h-3.36v3H127v9.52c0 2.266.453 3.933 1.36 5 .933 1.066 2.387 1.6 4.36 1.6 1.12 0 2.08-.174 2.88-.52.826-.32 1.627-.853 2.4-1.6l-1.64-2.2c-.454.427-.907.746-1.36.96-.453.213-1.027.32-1.72.32-.854 0-1.52-.28-2-.84-.454-.56-.68-1.587-.68-3.08v-9.16h5.44v-3h-5.44v-6.08H127zm-68.4 5.48c-1.44 0-2.76.266-3.96.8a9.496 9.496 0 00-3.08 2.12 9.487 9.487 0 00-2 3.12c-.48 1.2-.72 2.48-.72 3.84 0 1.44.226 2.772.68 4 .453 1.2 1.093 2.24 1.92 3.12.853.854 1.88 1.533 3.08 2.04 1.226.48 2.586.72 4.08.72 1.6 0 3-.28 4.2-.84 1.227-.587 2.254-1.346 3.08-2.28l-2.2-2.32c-.56.694-1.28 1.254-2.16 1.68-.854.4-1.827.6-2.92.6-.96 0-1.827-.187-2.6-.56a6.17 6.17 0 01-1.92-1.48 7.751 7.751 0 01-1.2-2.16 8.17 8.17 0 01-.4-2.52c0-.88.134-1.72.4-2.52a7.065 7.065 0 011.2-2.16 5.466 5.466 0 011.92-1.48c.773-.372 1.64-.56 2.6-.56 1.093 0 2.04.2 2.84.6.8.4 1.48.947 2.04 1.64l2.36-2.28a9.372 9.372 0 00-3.08-2.28c-1.2-.56-2.587-.84-4.16-.84zm33.76.04c-1.36 0-2.614.252-3.76.76a9.122 9.122 0 00-2.92 2.08c-.827.852-1.467 1.88-1.92 3.08-.454 1.173-.68 2.44-.68 3.8 0 1.493.226 2.853.68 4.08.48 1.227 1.146 2.28 2 3.16.853.88 1.88 1.56 3.08 2.04 1.2.48 2.52.72 3.96.72 1.174 0 2.213-.134 3.12-.4.933-.24 1.734-.533 2.4-.88.694-.346 1.253-.706 1.68-1.08.427-.373.748-.68.96-.92l-2.04-2.16c-.453.507-1.186 1.026-2.2 1.56-1.013.532-2.307.8-3.88.8-.8 0-1.56-.146-2.28-.44a6.484 6.484 0 01-1.92-1.2 6.052 6.052 0 01-1.36-1.8 5.838 5.838 0 01-.52-2.28h14.68c0-1.414-.173-2.774-.52-4.08-.347-1.308-.894-2.466-1.64-3.48a8.01 8.01 0 00-2.8-2.44c-1.146-.614-2.52-.92-4.12-.92zm20.4 0c-1.014 0-1.907.08-2.68.24-.773.133-1.467.32-2.08.56a8.969 8.969 0 00-1.6.72c-.453.267-.84.533-1.16.8l1.68 2.44c.56-.4 1.253-.786 2.08-1.16.827-.4 1.946-.6 3.36-.6 1.44 0 2.573.306 3.4.92.853.586 1.28 1.573 1.28 2.96v.68a6.858 6.858 0 00-.68-.08c-.32-.027-.693-.054-1.12-.08-.426-.027-.88-.054-1.36-.08-.48-.027-.934-.04-1.36-.04-2.64 0-4.667.6-6.08 1.8-1.387 1.2-2.08 2.8-2.08 4.8 0 1.067.187 1.974.56 2.72.4.72.906 1.32 1.52 1.8.64.453 1.333.774 2.08.96.773.214 1.547.32 2.32.32 1.2 0 2.36-.227 3.48-.68 1.147-.454 2.067-1.147 2.76-2.08l.08 2.24h3.36c-.027-.454-.04-1-.04-1.64v-10.84c0-2.132-.693-3.774-2.08-4.92-1.36-1.174-3.24-1.76-5.64-1.76zm65.32 0c-1.36 0-2.613.252-3.76.76a9.122 9.122 0 00-2.92 2.08c-.826.852-1.466 1.88-1.92 3.08-.453 1.173-.68 2.44-.68 3.8 0 1.493.227 2.853.68 4.08.48 1.227 1.147 2.28 2 3.16.854.88 1.88 1.56 3.08 2.04 1.2.48 2.52.72 3.96.72 1.173 0 2.214-.134 3.12-.4.934-.24 1.732-.533 2.4-.88.692-.346 1.254-.706 1.68-1.08.427-.373.746-.68.96-.92l-2.04-2.16c-.453.507-1.187 1.026-2.2 1.56-1.014.532-2.306.8-3.88.8a5.99 5.99 0 01-2.28-.44 6.484 6.484 0 01-1.92-1.2 6.046 6.046 0 01-1.36-1.8 5.838 5.838 0 01-.52-2.28h14.68c0-1.414-.173-2.774-.52-4.08-.346-1.308-.893-2.466-1.64-3.48a8.016 8.016 0 00-2.8-2.44c-1.147-.614-2.52-.92-4.12-.92zm-99.039.28c-.853 0-1.615.12-2.281.36-.64.213-1.212.48-1.719.8-.48.32-.894.68-1.24 1.08a8.45 8.45 0 00-.84 1.04l-.121-3H69.4c.027.613.04 1.214.04 1.8v16.8h3.601v-9.8c0-.773.132-1.507.398-2.2a5.965 5.965 0 011.16-1.8 5.098 5.098 0 011.68-1.24 5.304 5.304 0 012.16-.44c.747 0 1.36.094 1.84.28l.801-3.36a5.065 5.065 0 00-.96-.24 6.587 6.587 0 00-1.079-.08zm61.879.28v18.6h3.6v-18.6h-3.6zm6.48 0l8 18.6h3.6l7.959-18.6h-3.879l-5.76 14.52-5.8-14.52h-4.12zm-55.04 2.48c1.653 0 2.933.507 3.84 1.52.906 1.013 1.414 2.24 1.52 3.68H86.76a5.306 5.306 0 01.44-1.92c.266-.64.64-1.2 1.12-1.68a5.587 5.587 0 011.721-1.16c.693-.294 1.465-.44 2.318-.44zm85.72 0c1.653 0 2.933.507 3.84 1.52s1.413 2.24 1.52 3.68h-10.96a5.306 5.306 0 01.44-1.92c.267-.64.64-1.2 1.12-1.68a5.587 5.587 0 011.72-1.16c.693-.294 1.467-.44 2.32-.44zm-65.32 7c.426 0 .867.013 1.32.04.453.026.88.053 1.28.08.4.026.747.067 1.04.12.32.027.532.054.64.08v2.12c0 .56-.147 1.107-.44 1.64-.294.534-.68 1-1.16 1.4-.48.4-1.04.72-1.68.96-.614.24-1.266.36-1.96.36-1.226 0-2.187-.254-2.88-.76-.693-.534-1.04-1.308-1.04-2.32 0-.4.067-.813.2-1.24.133-.453.374-.854.72-1.2.374-.374.866-.68 1.48-.92.64-.24 1.466-.36 2.48-.36z"/>
</svg>
