<svg xmlns="http://www.w3.org/2000/svg" viewBox="0 0 40 40" fill="currentColor" height="40" width="40">
    <path d="M7.215 0A7.2 7.2 0 000 7.215v25.57A7.2 7.2 0 007.215 40h25.57A7.2 7.2 0 0040 32.785V7.215A7.2 7.2 0 0032.785 0zm18.021 8h.149c1.652 0 3.146.737 4.193 1.914a11.16 11.16 0 003.65-1.473 6.024 6.024 0 01-2.527 3.352A10.969 10.969 0 0034 10.838a12.012 12.012 0 01-2.865 3.137c.01.26.015.522.015.785 0 8.007-5.778 17.24-16.345 17.24C11.56 32 8.543 30.997 6 29.277c.45.057.908.084 1.371.084 2.692 0 5.165-.968 7.13-2.593-2.513-.049-4.63-1.802-5.362-4.21.35.072.71.11 1.08.11a5.51 5.51 0 001.515-.213c-2.628-.557-4.609-3.004-4.609-5.94v-.077c.775.453 1.66.728 2.602.76-1.542-1.087-2.557-2.94-2.557-5.042 0-1.111.285-2.154.78-3.049 2.833 3.666 7.065 6.08 11.839 6.332a6.405 6.405 0 01-.146-1.382c0-3.294 2.49-5.974 5.593-6.057z"/>
</svg>
